<svg version="1.1" id="Layer_1" xmlns="http://www.w3.org/2000/svg" xmlns:xlink="http://www.w3.org/1999/xlink" x="0px" y="0px"
	 width="100%" viewBox="0 0 1024 1024" enable-background="new 0 0 1024 1024" xml:space="preserve">
<path fill="#000000" opacity="1.000000" stroke="none" 
	d="
M388.320435,716.954712 
	C388.166229,717.990723 388.233398,719.008606 387.851227,719.222046 
	C382.166626,722.397278 385.794739,727.895020 384.712311,732.189087 
	C384.315308,733.763977 386.235291,735.277527 388.132446,736.003906 
	C396.064209,739.040833 404.087311,740.909607 412.746857,740.885742 
	C419.093964,740.868225 426.068634,739.534607 431.604645,744.663452 
	C433.364594,746.293884 434.910339,744.735413 436.493469,743.772949 
	C441.369141,740.809021 443.598328,741.265015 445.997406,745.519653 
	C448.165436,745.788208 449.112305,744.171631 449.494202,742.635437 
	C450.329071,739.277344 452.527222,738.225647 455.640778,738.032227 
	C458.659790,737.844727 461.518982,737.030762 464.119812,735.383850 
	C464.953430,734.856018 465.950104,734.207825 466.856323,734.231079 
	C475.598969,734.455627 483.763519,730.177917 492.553802,730.975342 
	C494.636383,731.164246 496.413483,732.180481 497.521332,733.967773 
	C498.992035,736.340454 500.277435,738.827942 501.688873,741.349121 
	C499.795898,744.805542 497.036957,745.552673 493.310394,744.417297 
	C491.635590,743.907104 489.357819,742.020874 488.002380,744.663818 
	C486.540680,747.513916 489.521942,748.162537 490.993469,749.527954 
	C491.567627,750.060669 491.983673,750.763672 492.372314,751.261719 
	C491.899231,752.845581 490.819946,753.815857 489.710266,753.385376 
	C485.225891,751.645569 482.923187,753.968933 480.654266,757.372986 
	C479.044250,759.788513 476.507507,760.758911 473.330170,760.701050 
	C460.338776,760.464355 447.342255,760.490479 434.347565,760.462402 
	C431.688049,760.456665 429.102844,760.696533 426.741516,758.849487 
	C425.826324,758.133545 424.112610,757.883484 422.927032,758.150696 
	C401.878082,762.894775 380.558777,759.595398 359.381653,760.267517 
	C342.068878,760.817017 324.725128,760.404785 307.395111,760.390015 
	C301.512543,760.385010 301.834564,759.905151 302.099884,753.966675 
	C302.830811,737.604919 311.602600,724.012390 316.657593,709.150818 
	C318.102844,704.901733 319.988800,700.675293 320.578247,696.291321 
	C321.534119,689.182678 325.970490,684.437561 330.096008,679.227478 
	C343.759460,661.972351 360.023041,646.729614 369.568329,626.282288 
	C374.732697,615.219482 379.746368,603.996765 377.284943,591.901917 
	C375.268768,581.994995 375.818146,571.715210 372.239166,562.077759 
	C369.617432,555.017944 370.091095,547.315369 368.409515,540.015930 
	C365.943329,529.310669 361.044830,519.312012 359.272552,508.430176 
	C357.966675,500.411896 357.647980,492.165375 355.631226,484.345001 
	C351.906281,469.900940 344.576477,457.404968 332.948700,447.646057 
	C320.929840,437.558929 306.324036,435.962982 291.595490,434.681580 
	C288.615814,434.422363 285.593353,434.604767 282.625214,434.273468 
	C276.399475,433.578552 272.836548,429.293243 272.596100,422.963379 
	C272.496887,420.351227 271.919861,417.731812 271.322540,415.171112 
	C270.722076,412.596954 269.826172,410.091766 269.009430,407.389923 
	C272.187988,406.354065 272.761444,403.619293 272.267822,401.022278 
	C271.815155,398.640869 269.887604,397.041718 266.798645,397.159637 
	C267.233368,394.478485 266.471344,392.255463 264.966583,389.889618 
	C258.628815,379.925140 256.815277,369.456024 262.597595,358.473511 
	C263.597168,356.575043 264.632812,354.650757 264.687561,352.382294 
	C264.706879,351.581970 264.785919,350.380798 265.287354,350.055237 
	C271.799438,345.827423 272.322083,337.861237 276.495758,332.156799 
	C278.360046,329.608734 281.428070,329.291687 283.323273,326.775085 
	C285.878143,323.382446 286.316376,323.712463 284.122131,319.773804 
	C286.465179,318.429443 289.408325,317.451447 289.233826,313.997070 
	C288.757202,312.575134 287.376923,312.671600 286.447693,312.070282 
	C284.440277,310.771240 284.060516,308.640198 286.492767,307.992889 
	C290.675812,306.879608 291.236053,304.025848 291.692444,300.524353 
	C292.460632,294.630737 301.650360,290.356934 306.540649,293.598083 
	C308.682068,295.017334 308.392303,298.441437 311.761139,299.368835 
	C315.398499,300.370117 319.063599,301.233887 322.683105,302.224854 
	C324.415436,300.426331 322.932587,297.891724 324.325470,295.967987 
	C327.570984,295.621002 326.570892,299.731140 328.837677,300.345032 
	C333.675659,297.397430 334.497833,294.285583 331.276794,289.314026 
	C329.461884,286.512817 327.736389,283.717743 326.300415,280.693329 
	C323.857025,275.547272 324.326965,270.637543 327.859772,266.313812 
	C329.183990,264.693146 330.919739,263.888062 332.647095,264.672913 
	C334.691284,265.601746 334.341034,267.686798 333.673828,269.492737 
	C331.880676,274.346222 331.395233,279.250366 333.670715,284.025574 
	C335.874969,288.651245 337.764832,288.849060 341.346588,285.313843 
	C348.917877,277.840820 356.591553,270.467926 365.788605,264.963867 
	C375.138275,259.368500 385.878479,258.835419 396.176910,256.478668 
	C415.571594,252.040222 435.246277,251.667603 454.923553,250.485519 
	C467.716248,249.717026 480.451569,248.396652 493.054474,251.585953 
	C508.413849,255.472855 522.853638,261.070648 535.900330,270.682495 
	C544.523926,277.035736 554.733398,281.321533 563.169250,288.126740 
	C571.540222,294.879669 580.039246,301.654480 585.443542,311.253510 
	C586.477417,313.089844 590.255859,315.622498 585.304749,317.856873 
	C584.833679,318.069458 585.232788,321.354156 585.965332,322.851959 
	C587.486450,325.961792 587.230042,328.812988 585.723694,331.948792 
	C578.356445,325.527405 569.169006,327.601593 560.720154,325.942444 
	C555.064880,324.831879 551.164307,328.233826 546.268372,327.764618 
	C545.114258,327.654053 543.932495,328.777008 542.795593,329.488525 
	C539.400146,331.613525 538.717651,337.343597 532.988098,336.597198 
	C531.947632,336.461639 529.961975,339.002930 531.638855,340.998871 
	C534.042664,343.860138 533.730957,346.665558 531.595764,349.645905 
	C535.517822,352.022186 535.394104,347.469818 537.795410,346.690765 
	C540.245972,349.956390 544.791382,351.877625 544.728699,357.174438 
	C544.718262,358.053986 545.620544,358.694244 546.453125,358.742798 
	C550.466003,358.976776 551.371155,361.182373 551.510010,364.936249 
	C551.640015,368.451416 554.458679,370.296112 557.813416,370.112732 
	C558.470276,372.868713 557.313904,374.249481 555.896790,375.508911 
	C553.689087,377.470917 554.318604,379.241791 556.224915,380.962524 
	C561.443542,385.673187 561.204163,388.345978 555.433655,392.041168 
	C549.322266,395.954651 541.976257,398.092041 537.146790,403.797058 
	C534.057800,407.446045 528.139282,409.104492 527.267090,413.529419 
	C526.457703,417.635284 525.121338,421.433289 523.686462,425.197937 
	C521.646851,430.549316 520.086426,436.304779 520.287598,441.640228 
	C520.451477,445.986847 519.598938,450.720978 520.772583,454.615662 
	C521.909119,458.387238 523.110901,461.567200 521.695129,465.383118 
	C521.468811,465.993134 522.080383,466.929749 522.342285,467.702576 
	C524.014587,472.637115 526.886169,477.256531 529.373840,481.514832 
	C531.727905,485.544403 535.791565,489.499268 539.332886,493.180115 
	C544.215698,498.255402 548.113953,503.352448 549.152405,510.426514 
	C549.536438,513.042053 551.238525,512.890625 552.632202,512.274231 
	C554.302124,510.117432 551.125305,509.430389 552.410339,507.573029 
	C556.532776,507.574951 557.066345,511.425842 558.886108,513.863403 
	C562.795654,512.707458 566.499634,514.961243 569.696350,520.875366 
	C572.675720,526.387512 575.338623,532.065796 578.793396,537.321167 
	C580.691284,540.208252 579.319885,542.852234 577.501892,545.085449 
	C575.783691,547.196106 574.750671,549.444031 575.656799,551.972656 
	C576.991455,555.696838 571.892639,558.135681 574.614990,561.679260 
	C572.524719,562.349915 571.878479,560.149902 569.907471,561.066467 
	C568.777405,564.505066 568.824463,568.525757 571.160645,571.438904 
	C573.474426,574.324036 577.318542,575.186096 581.022400,573.612366 
	C584.035339,575.771179 585.097961,578.364746 583.006409,581.570923 
	C585.636963,582.337280 586.660339,580.513000 588.616699,580.034363 
	C589.293945,582.525818 593.001831,582.275208 593.525818,583.379944 
	C596.808289,590.300171 602.897461,588.417908 608.252197,588.779236 
	C611.045898,588.967834 611.704407,590.257690 611.897583,592.927551 
	C612.966309,607.699951 601.597961,620.289673 586.121887,621.427124 
	C576.689087,622.120422 567.320801,623.770691 557.806824,623.189636 
	C556.652100,623.119019 555.314880,623.606873 554.355469,623.178772 
	C549.601135,621.057129 545.967529,621.538025 542.856140,626.282104 
	C540.637512,629.664856 536.560852,631.353882 534.065186,634.845398 
	C531.911133,637.859070 528.374573,637.854309 525.587341,635.045471 
	C523.749512,635.671875 524.375488,638.606018 521.543884,638.120850 
	C522.683716,631.492737 513.796448,631.907227 513.064026,626.240173 
	C503.421417,623.670898 502.432770,612.227295 493.983368,607.853455 
	C489.839630,605.708435 487.270599,600.127808 484.826935,595.417419 
	C483.141388,592.168335 479.888733,590.742920 475.867004,592.001038 
	C474.656311,593.674561 475.149658,595.753540 475.410950,597.637024 
	C476.106598,602.651611 475.737122,603.066650 470.992432,601.729980 
	C470.409576,601.565735 469.699982,601.851562 468.886444,601.948181 
	C469.105713,604.824768 469.557556,607.431030 465.352173,608.089966 
	C463.425995,608.391785 464.196442,610.519775 465.850128,611.740356 
	C468.680450,613.829285 469.687561,620.131958 467.674347,623.183777 
	C466.375244,625.153076 465.867950,627.275513 466.661194,629.350952 
	C469.724762,637.366333 467.957397,643.991272 461.932739,650.040649 
	C460.604340,651.374451 459.793945,651.526672 458.182404,651.845398 
	C452.859558,652.898071 448.237152,656.006409 443.799957,658.815918 
	C441.190857,660.467957 438.981567,660.603088 437.110596,659.636414 
	C433.888428,657.971680 431.382172,659.168701 429.381104,660.969910 
	C427.327606,662.818359 426.043213,665.495667 422.645355,665.013855 
	C422.402557,664.979431 421.877319,665.338745 421.859650,665.546936 
	C421.271637,672.477173 415.138824,677.487183 415.341125,684.738892 
	C415.471954,689.428650 412.599365,692.569519 408.027771,692.316833 
	C405.625671,692.184021 404.026093,693.205261 402.082916,693.948730 
	C399.260040,695.028809 397.892670,696.246704 399.626038,699.486938 
	C401.015564,702.084412 399.249420,704.243042 396.946869,704.924194 
	C390.988190,706.686890 390.173828,711.936157 388.320435,716.954712 
M475.117584,506.173340 
	C476.932404,505.380981 478.934204,505.052643 480.017548,506.968903 
	C481.685516,509.919403 477.454529,509.746582 477.026672,511.716095 
	C477.970215,513.183105 479.137115,513.849121 480.911377,513.274597 
	C481.121735,512.870728 481.509460,512.455505 481.540375,512.015198 
	C481.799255,508.330658 481.919861,505.072418 487.448029,505.953003 
	C489.939911,506.349945 491.813171,503.714417 491.881592,500.855896 
	C492.008728,495.546570 491.696899,490.332672 490.634247,485.030701 
	C489.010529,476.929443 485.849884,469.376770 483.549103,461.530121 
	C480.781677,452.092041 480.738892,452.064636 473.164642,452.773682 
	C478.891235,446.246185 472.880676,443.759491 469.521271,440.627838 
	C464.172760,435.641846 457.545654,432.081665 453.349243,425.783478 
	C450.640808,421.718567 446.260010,419.893280 441.916412,418.253235 
	C437.092896,416.431885 432.977600,418.189301 430.019745,423.023407 
	C431.504120,424.549316 433.109528,423.530212 434.656860,423.219147 
	C439.151001,422.315765 443.937469,423.300171 446.714905,426.124359 
	C450.150879,429.618164 453.004333,434.205017 453.347534,439.721039 
	C453.530823,442.667236 454.475128,445.562256 455.017365,448.491211 
	C455.414429,450.636078 456.369476,451.921936 458.765656,451.148926 
	C463.586426,449.593750 464.106323,452.570831 464.160492,456.165192 
	C464.271271,463.517273 465.946930,470.299408 471.210510,475.844055 
	C472.088745,476.769165 472.573761,478.116364 473.082611,479.334473 
	C474.796906,483.437897 473.986633,484.690582 469.553619,483.971191 
	C459.390076,482.321838 450.854431,476.111755 441.025757,473.444672 
	C440.311401,473.250824 439.763855,472.442413 439.188629,471.961456 
	C442.651123,463.810120 440.802673,459.897339 432.859161,458.660980 
	C434.410645,452.961548 440.051422,450.711273 443.619934,446.162262 
	C439.934448,443.658020 437.089813,440.879822 436.972900,436.310547 
	C436.908875,433.810120 436.758606,431.170746 432.995331,431.298004 
	C429.253448,431.424530 426.958099,433.220367 426.375427,436.802338 
	C425.817535,440.231934 425.398987,443.645386 425.608154,447.226929 
	C426.078430,455.278564 425.831543,463.169281 431.200806,470.250366 
	C433.445923,473.211273 437.117310,476.648834 435.597534,481.504395 
	C432.621368,481.529175 430.830414,478.104492 427.867645,479.799835 
	C427.411835,482.152527 429.442261,482.998260 430.421814,484.433655 
	C433.527344,488.984192 439.147797,490.553802 442.637451,494.519287 
	C451.173615,504.219421 461.585602,508.448547 475.117584,506.173340 
M415.705078,435.264435 
	C412.217102,443.069641 412.792542,450.905121 415.481995,459.914490 
	C416.831573,455.682526 416.411194,452.422913 416.687714,449.223328 
	C416.973541,445.916382 415.301697,442.060181 419.834259,439.643127 
	C421.360931,438.829041 421.833740,435.301819 422.019989,432.953735 
	C422.158783,431.204285 420.777924,429.784729 418.641022,431.101715 
	C417.338562,431.904388 416.468109,433.123993 415.705078,435.264435 
z"/>
<path fill="#000000" opacity="1.000000" stroke="none" 
	d="
M543.805542,740.186768 
	C550.339966,750.411133 551.871582,754.039490 552.106506,759.833313 
	C549.329285,761.880493 546.380737,759.847656 542.101868,760.543396 
	C545.574585,758.016785 544.426025,756.283203 543.610413,753.954895 
	C540.584778,745.317444 534.211304,738.386047 531.602600,729.590881 
	C530.587097,726.167053 526.848450,724.450745 526.083252,720.825500 
	C525.708069,719.048401 524.633240,716.836365 526.926819,716.054077 
	C529.607727,715.139709 529.309692,717.883728 530.009521,719.432678 
	C531.375732,722.456604 532.131287,725.575562 535.792786,727.443848 
	C540.496887,729.844116 540.893677,735.759827 543.805542,740.186768 
z"/>
<path fill="#000000" opacity="1.000000" stroke="none" 
	d="
M609.273682,500.216125 
	C611.469238,506.020386 613.765015,506.985016 619.244690,503.889008 
	C623.913635,501.251038 628.291626,500.915344 632.853760,503.840210 
	C634.884155,505.141937 637.203613,506.773529 636.189148,509.265717 
	C635.100159,511.940826 632.023560,512.468079 629.359131,512.016296 
	C624.644714,511.217072 619.981995,510.081879 615.335815,508.933136 
	C614.170593,508.644989 613.165039,508.279694 611.993042,508.841125 
	C609.959351,509.815338 608.131897,509.750000 606.823792,507.575439 
	C605.371216,505.160614 604.723938,502.635071 606.072327,500.001465 
	C606.929565,498.327026 608.071228,498.493713 609.273682,500.216125 
z"/>
<path fill="#000000" opacity="1.000000" stroke="none" 
	d="
M607.307373,443.137024 
	C609.698547,444.379120 608.851501,444.702179 607.315063,445.682770 
	C604.803223,447.285889 600.795532,446.686371 599.901794,450.489380 
	C595.325439,449.305054 592.346741,442.376953 586.217407,447.005554 
	C584.741943,445.712402 582.975281,444.568665 584.218323,441.807678 
	C591.744751,442.473083 599.476013,440.151520 607.307373,443.137024 
z"/>
<path fill="#000000" opacity="1.000000" stroke="none" 
	d="
M609.755676,432.149689 
	C607.815186,434.632324 605.933472,434.317139 605.187805,431.870117 
	C604.495911,429.599854 603.443054,427.215240 603.930420,424.487366 
	C608.061890,426.516174 613.295471,422.797852 617.032654,427.631836 
	C614.773743,429.251953 613.525330,432.267120 609.755676,432.149689 
z"/>
<path fill="#000000" opacity="1.000000" stroke="none" 
	d="
M535.669739,716.818970 
	C534.595520,715.664795 533.854187,714.575500 533.097351,713.497009 
	C532.367126,712.456421 532.022095,711.290833 533.030212,710.366272 
	C533.544861,709.894287 534.532349,709.758972 535.298340,709.778320 
	C536.726074,709.814331 537.320984,710.877747 537.309387,712.140015 
	C537.293945,713.812927 538.366028,715.849304 535.669739,716.818970 
z"/>
<path fill="#000000" opacity="1.000000" stroke="none" 
	d="
M514.181763,723.632751 
	C510.610199,725.584473 510.610199,725.584473 509.645081,719.709229 
	C511.989746,720.064636 513.711182,720.907532 514.181763,723.632751 
z"/>
</svg>